<?xml version="1.0" encoding="UTF-8"?> <svg xmlns="http://www.w3.org/2000/svg" xmlns:xlink="http://www.w3.org/1999/xlink" width="118px" height="29px" viewBox="0 0 118 29"><!-- Generator: sketchtool 53.2 (72643) - https://sketchapp.com --><title>8055BFA0-B428-4046-B397-4326EF02C015</title><desc>Created with sketchtool.</desc><defs><polygon id="path-1" points="0.00774926654 0.0132998605 21.670493 0.0132998605 21.670493 27.9720949 0.00774926654 27.9720949"></polygon><polygon id="path-3" points="0.00020311996 0.0130968228 20.9520269 0.0130968228 20.9520269 27.9720949 0.00020311996 27.9720949"></polygon></defs><g id="Symbols" stroke="none" stroke-width="1" fill="none" fill-rule="evenodd"><g id="logo/logo_reverse"><g id="Group-29"><g id="Group-17" transform="translate(24.342765, 0.000000)"><path d="M48.2591132,0.360074754 L46.5986075,0.360074754 C45.7495661,0.360074754 45.1564558,0.952944756 45.1564558,1.80164222 L45.1564558,23.6809818 L38.2524084,23.6809818 C33.9828268,23.6809818 32.2502136,23.4099265 32.2502136,16.5909062 L32.2502136,1.80164222 C32.2502136,0.952944756 31.6571033,0.360074754 30.8080619,0.360074754 L29.1952894,0.360074754 C28.3462479,0.360074754 27.7054045,0.979339653 27.7054045,1.80164222 L27.7054045,16.5909062 C27.7054045,26.2818943 31.2132862,27.9863956 38.5855251,27.9863956 C41.2362406,27.9863956 44.8680255,27.9863956 48.3312208,27.49809 L48.4114531,27.481847 C49.2665882,27.2676422 49.7012649,26.7773062 49.7012649,26.0240365 L49.7012649,1.80164222 C49.7012649,0.952944756 49.1081546,0.360074754 48.2591132,0.360074754" id="Fill-4" fill="#FFFFFF"></path><path d="M68.187314,0.411646323 L68.0745824,0.38220586 C67.1016378,0.177137811 64.4417819,0.0279051226 63.1225178,0.0279051226 C58.4558367,0.0279051226 55.9889448,1.98518828 55.9889448,5.68859542 L55.9889448,26.307071 C55.9889448,27.1567837 56.5820551,27.7496537 57.4321121,27.7496537 L59.0916022,27.7496537 C59.9416592,27.7496537 60.5347695,27.1567837 60.5347695,26.307071 L60.5347695,6.06726067 C60.5347695,5.15359115 60.764295,4.33331896 63.5500853,4.33331896 L67.6724049,4.3292582 C68.0766136,4.37798724 68.4625415,4.26631652 68.7580811,4.01454981 C69.0820574,3.74146414 69.2597874,3.34249512 69.2597874,2.89175148 L69.2597874,1.84915304 C69.2597874,1.1639009 68.8687814,0.640063703 68.187314,0.411646323" id="Fill-6" fill="#FFFFFF"></path><g id="Group-10" transform="translate(70.966167, 0.014605)"><mask id="mask-2" fill="white"><use xlink:href="#path-1"></use></mask><g id="Clip-9"></g><path d="M10.9823207,0.0132998605 C6.20392363,0.0132998605 3.50344377,0.937121268 1.95262288,3.10353323 C0.333756802,5.36638808 0.00774926654,8.93883592 0.00774926654,13.9690942 C0.00774926654,23.8438314 1.53318016,27.9726025 10.9823207,27.9726025 C12.1167457,27.9726025 15.9963369,27.9502683 18.2611244,27.6741371 C19.1426651,27.5269348 19.5377334,26.8508193 19.5377334,26.2457671 L19.5377334,25.1554548 C19.5377334,24.3067573 18.8968899,23.6661735 18.0478485,23.6661735 L10.9823207,23.6661735 C5.65042174,23.6661735 4.68966433,22.4073399 4.55255836,15.2482316 L4.55255836,12.9325869 C4.59826035,5.60698772 5.55901776,4.31871369 10.9823207,4.31871369 C15.9831341,4.31871369 16.9408447,5.46181579 17.1074031,11.9113074 L9.16236584,11.9113074 L9.16236584,16.2634199 L19.6128878,16.2634199 C21.670493,16.2634199 21.670493,14.8218525 21.670493,14.3487747 L21.670493,12.9579666 C21.5222154,2.91673857 19.1243843,0.0132998605 10.9823207,0.0132998605" id="Fill-8" fill="#FFFFFF" mask="url(#mask-2)"></path></g><path d="M22.585969,1.03720539 L22.585969,1.03720539 C22.3726931,0.583416193 21.9156731,0.312360901 21.3631869,0.312360901 L19.2294117,0.312360901 C18.6098958,0.312360901 18.1467823,0.562097237 17.9030383,1.01284087 L14.7404606,5.64209979 L17.5089856,9.4348435 L22.3422251,2.48892474 C22.8733838,1.84224976 22.6895602,1.25851645 22.585969,1.03720539" id="Fill-11" fill="#74BB11"></path><path d="M5.91439053,0.960355631 L5.91134373,0.956294877 C5.42893383,0.312665457 4.78809036,0.312665457 4.5768456,0.312665457 L2.48978802,0.312665457 C1.95558252,0.312665457 1.51785901,0.55834104 1.28833346,0.986750528 C1.0537299,1.4253119 1.10349429,1.95320985 1.42848623,2.44151545 L9.16024749,13.1801779 L0.269686859,25.6030379 C-0.0410866793,26.0700245 -0.0847574706,26.589801 0.150861682,27.0283623 C0.380387237,27.4567718 0.81811075,27.7024474 1.35231624,27.7024474 L3.48609142,27.7024474 C4.03451531,27.7024474 4.51692521,27.4171795 4.75762236,26.967451 L14.7084692,13.228907 L5.91439053,0.960355631 Z" id="Fill-13" fill="#009CD9"></path><path d="M23.6698264,25.9749789 L18.2838965,18.5748716 L15.9141579,21.844625 L20.1738667,27.5358633 L20.2849895,27.5843106 C20.4684304,27.663588 20.6439339,27.7023459 20.8220832,27.7023459 L22.6335619,27.7023459 C23.0709978,27.7023459 23.4431711,27.5067949 23.6530698,27.1676637 C23.869142,26.818843 23.8744336,26.3845789 23.6698264,25.9749789" id="Fill-15" fill="#EB2084"></path></g><g id="Group-3" transform="translate(-0.000000, 0.000000)"><mask id="mask-4" fill="white"><use xlink:href="#path-3"></use></mask><g id="Clip-2"></g><path d="M16.4072179,16.0743919 L16.4072179,23.3167456 C14.2947703,23.6416059 11.0753189,23.7136843 9.97745553,23.7136843 C5.1228885,23.7136843 4.59172981,22.3848027 4.59172981,19.5625791 C4.59172981,16.9220741 5.57787721,16.0743919 8.6500666,16.0743919 L16.4072179,16.0743919 Z M9.74082078,0.0130968228 C8.24077988,0.0130968228 6.19536189,0.0516739805 3.65026879,0.359276053 L3.53550602,0.383640574 C2.79411816,0.595814941 2.41834624,1.08310535 2.41834624,1.83434474 L2.41834624,2.87694319 C2.41834624,3.76624819 2.97083253,4.31851066 3.86049795,4.31851066 L9.74082078,4.31851066 C14.475547,4.31851066 16.4072179,5.60373912 16.4072179,8.75488379 L16.4072179,11.8166919 L8.6500666,11.8166919 C2.5869358,11.8166919 0.00020311996,14.1323365 0.00020311996,19.5625791 C0.00020311996,25.6141169 2.67732419,27.9723994 9.55090362,27.9723994 C12.3346627,27.9723994 17.4603948,27.7561643 19.3544885,27.1775069 C20.9520269,26.7328544 20.9520269,25.5105677 20.9520269,25.1075379 L20.9520269,8.47063105 C20.9520269,2.7794851 17.2846961,0.0130968228 9.74082078,0.0130968228 L9.74082078,0.0130968228 Z" id="Fill-1" fill="#FFFFFF" mask="url(#mask-4)"></path></g></g></g></g></svg> 